<!DOCTYPE svg PUBLIC "-//W3C//DTD SVG 1.1//EN" "http://www.w3.org/Graphics/SVG/1.1/DTD/svg11.dtd">
<!-- Uploaded to: SVG Repo, www.svgrepo.com, Transformed by: SVG Repo Mixer Tools -->
<svg height="64px" width="64px" version="1.1" id="Capa_1" xmlns="http://www.w3.org/2000/svg" xmlns:xlink="http://www.w3.org/1999/xlink" viewBox="0 0 170.655 170.655" xml:space="preserve" fill="#000000" transform="rotate(270)">
<g id="SVGRepo_bgCarrier" stroke-width="0"/>
<g id="SVGRepo_tracerCarrier" stroke-linecap="round" stroke-linejoin="round"/>
<g id="SVGRepo_iconCarrier"> <g> <g> <path style="fill:#010002;" d="M41,35.132c0.632,0,1.271-0.245,1.754-0.728c1.701-1.701,3.497-3.324,5.334-4.833 c1.062-0.865,1.217-2.429,0.352-3.485c-0.865-1.056-2.429-1.223-3.491-0.358c-1.963,1.605-3.884,3.341-5.704,5.161 c-0.973,0.967-0.973,2.542,0,3.509C39.729,34.888,40.361,35.132,41,35.132z"/> <path style="fill:#010002;" d="M149.275,39.548c0.495,0.597,1.205,0.901,1.921,0.901c0.555,0,1.116-0.179,1.575-0.573 c1.056-0.865,1.211-2.429,0.34-3.485c-3.192-3.873-6.778-7.459-10.663-10.633c-1.074-0.871-2.625-0.71-3.497,0.352 c-0.871,1.056-0.716,2.619,0.346,3.491C142.932,32.578,146.291,35.932,149.275,39.548z"/> <path style="fill:#010002;" d="M162.563,64.239c0.328,1.074,1.313,1.754,2.375,1.754c0.239,0,0.483-0.03,0.728-0.107 c1.313-0.4,2.053-1.79,1.647-3.109c-1.468-4.797-3.419-9.469-5.8-13.903c-0.65-1.199-2.16-1.641-3.365-1.002 s-1.659,2.148-1.008,3.353C159.365,55.384,161.191,59.757,162.563,64.239z"/> <path style="fill:#010002;" d="M114.565,16.39c4.481,1.36,8.861,3.168,13.014,5.382c0.37,0.203,0.776,0.304,1.169,0.304 c0.889,0,1.742-0.477,2.196-1.319c0.644-1.211,0.191-2.715-1.02-3.353c-4.439-2.375-9.123-4.326-13.921-5.77 c-1.307-0.4-2.697,0.352-3.097,1.653C112.513,14.606,113.253,15.99,114.565,16.39z"/> <path style="fill:#010002;" d="M58.644,22.053c0.394,0,0.794-0.095,1.17-0.292c4.153-2.214,8.533-4.028,13.014-5.382 c1.313-0.382,2.059-1.772,1.659-3.097c-0.394-1.307-1.784-2.059-3.091-1.647c-4.797,1.444-9.481,3.371-13.921,5.746 c-1.211,0.65-1.665,2.154-1.02,3.353C56.896,21.575,57.755,22.053,58.644,22.053z"/> <path style="fill:#010002;" d="M86.652,13.651c4.589-0.448,9.38-0.448,14.094,0c0.084,0.012,0.161,0.018,0.245,0.018 c1.265,0,2.345-0.961,2.47-2.244c0.131-1.366-0.865-2.578-2.232-2.715c-5.03-0.483-10.15-0.477-15.054,0 c-1.366,0.125-2.363,1.349-2.232,2.715C84.075,12.786,85.292,13.747,86.652,13.651z"/> <path style="fill:#010002;" d="M170.284,77.64c-0.131-1.366-1.366-2.285-2.715-2.232c-1.366,0.131-2.363,1.36-2.226,2.715 c0.239,2.369,0.352,4.797,0.352,7.202c0,39.71-32.305,72.014-72.014,72.014c-39.507,0-71.656-31.982-71.984-71.417l14.458,14.464 c0.973,0.967,2.542,0.967,3.509,0c0.973-0.967,0.973-2.542,0-3.509L20.199,77.402L0.729,96.877c-0.973,0.967-0.973,2.542,0,3.509 c0.489,0.489,1.122,0.722,1.754,0.722s1.271-0.233,1.754-0.722l12.578-12.572c1.331,41.291,35.246,74.49,76.853,74.49 c42.448,0,76.985-34.53,76.985-76.979C170.666,82.76,170.541,80.17,170.284,77.64z"/> </g> </g> </g>
</svg>